<svg width="17" height="20" viewBox="0 0 17 20" fill="none" xmlns="http://www.w3.org/2000/svg">
<path fill-rule="evenodd" clip-rule="evenodd" d="M9.18 4.36047H14.8467L15.555 5.08721V8.03779H16.2917L17 8.76453V10.1744L16.2917 10.9012H15.555V15.2616L14.8467 15.9884H10.4267L6.885 20L5.66667 19.4767V15.9884H2.125L1.41667 15.0581V10.9012H0.708333L0 10.1744V8.76453L0.708333 8.03779H1.41667V4.88372L2.1675 4.36047H7.83417V2.70349C7.61213 2.58227 7.42555 2.4026 7.2936 2.18291C7.16164 1.96323 7.08907 1.71147 7.08333 1.45349C7.08333 1.068 7.23259 0.698299 7.49827 0.425717C7.76394 0.153135 8.12428 0 8.5 0C8.87572 0 9.23606 0.153135 9.50173 0.425717C9.76741 0.698299 9.91667 1.068 9.91667 1.45349C9.90503 1.70251 9.83115 1.94428 9.70214 2.15555C9.57313 2.36683 9.39332 2.5405 9.18 2.65988V4.36047ZM14.1667 10.1744V5.81395H2.83333V14.3314L6.375 14.5349H7.08333V17.718L9.63333 14.7529L10.1292 14.5349H14.1667V10.1744ZM11.1633 10.9157C10.6329 11.4613 9.95807 11.8353 9.2225 11.9913V11.9767C8.60888 12.0972 7.97589 12.0622 7.37845 11.8747C6.78102 11.6873 6.23719 11.3531 5.79417 10.9012L4.8025 11.9331C5.28417 12.4273 5.85792 12.8169 6.48833 13.0814C7.12583 13.3547 7.80867 13.4971 8.5 13.5029C9.86958 13.4943 11.1815 12.9361 12.155 11.9477L11.1633 10.9157ZM6.36083 7.99419H4.94417V9.44767H6.36083V7.99419ZM10.6108 7.99419H12.0275V9.44767H10.6108V7.99419Z" fill="white"/>
</svg>
