<svg width="19" height="20" viewBox="0 0 19 20" fill="none" xmlns="http://www.w3.org/2000/svg">
<g id="calendar_svgrepo.com">
<path id="Vector" d="M11.0833 17.917H7.91658C4.93102 17.917 3.43825 17.917 2.51074 16.9895C1.58325 16.062 1.58325 14.5692 1.58325 11.5837V10.0003C1.58325 7.01476 1.58325 5.52199 2.51074 4.59448C3.43825 3.66699 4.93102 3.66699 7.91658 3.66699H11.0833C14.0688 3.66699 15.5616 3.66699 16.4891 4.59448C17.4166 5.52199 17.4166 7.01476 17.4166 10.0003V11.5837C17.4166 14.5692 17.4166 16.062 16.4891 16.9895C15.9719 17.5066 15.2792 17.7354 14.2499 17.8366" stroke="#97A1AD" stroke-width="1.9" stroke-linecap="round"/>
<path id="Vector_2" d="M5.54175 3.66699V2.47949" stroke="#97A1AD" stroke-width="2" stroke-linecap="round"/>
<path id="Vector_3" d="M13.4583 3.66699V2.47949" stroke="#97A1AD" stroke-width="2" stroke-linecap="round"/>
<path id="Vector_4" d="M17.0208 7.625H13.1614H8.51034M1.58325 7.625H4.65096" stroke="#97A1AD" stroke-width="2" stroke-linecap="round"/>
<path id="Vector_5" d="M14.2501 13.9587C14.2501 14.3959 13.8957 14.7503 13.4584 14.7503C13.0212 14.7503 12.6667 14.3959 12.6667 13.9587C12.6667 13.5214 13.0212 13.167 13.4584 13.167C13.8957 13.167 14.2501 13.5214 14.2501 13.9587Z" fill="#97A1AD"/>
<path id="Vector_6" d="M14.2501 10.7917C14.2501 11.2289 13.8957 11.5833 13.4584 11.5833C13.0212 11.5833 12.6667 11.2289 12.6667 10.7917C12.6667 10.3544 13.0212 10 13.4584 10C13.8957 10 14.2501 10.3544 14.2501 10.7917Z" fill="#97A1AD"/>
<path id="Vector_7" d="M10.2916 13.9587C10.2916 14.3959 9.93716 14.7503 9.49992 14.7503C9.06268 14.7503 8.70825 14.3959 8.70825 13.9587C8.70825 13.5214 9.06268 13.167 9.49992 13.167C9.93716 13.167 10.2916 13.5214 10.2916 13.9587Z" fill="#97A1AD"/>
<path id="Vector_8" d="M10.2916 10.7917C10.2916 11.2289 9.93716 11.5833 9.49992 11.5833C9.06268 11.5833 8.70825 11.2289 8.70825 10.7917C8.70825 10.3544 9.06268 10 9.49992 10C9.93716 10 10.2916 10.3544 10.2916 10.7917Z" fill="#97A1AD"/>
<path id="Vector_9" d="M6.33333 13.9587C6.33333 14.3959 5.97889 14.7503 5.54167 14.7503C5.10444 14.7503 4.75 14.3959 4.75 13.9587C4.75 13.5214 5.10444 13.167 5.54167 13.167C5.97889 13.167 6.33333 13.5214 6.33333 13.9587Z" fill="#97A1AD"/>
<path id="Vector_10" d="M6.33333 10.7917C6.33333 11.2289 5.97889 11.5833 5.54167 11.5833C5.10444 11.5833 4.75 11.2289 4.75 10.7917C4.75 10.3544 5.10444 10 5.54167 10C5.97889 10 6.33333 10.3544 6.33333 10.7917Z" fill="#97A1AD"/>
</g>
</svg>
