<svg width="14" height="15" viewBox="0 0 14 15" fill="none" xmlns="http://www.w3.org/2000/svg">
<path fill-rule="evenodd" clip-rule="evenodd" d="M11.3333 1.33333H12C12.7333 1.33333 13.3333 1.93333 13.3333 2.66667V13.3333C13.3333 14.0667 12.7333 14.6667 12 14.6667H1.33333C0.6 14.6667 0 14.0667 0 13.3333V2.66667C0 1.93333 0.6 1.33333 1.33333 1.33333H2V0.666667C2 0.3 2.3 0 2.66667 0C3.03333 0 3.33333 0.3 3.33333 0.666667V1.33333H10V0.666667C10 0.3 10.3 0 10.6667 0C11.0333 0 11.3333 0.3 11.3333 0.666667V1.33333ZM1.99967 13.3333H11.333C11.6997 13.3333 11.9997 13.0333 11.9997 12.6666V4.66663H1.33301V12.6666C1.33301 13.0333 1.63301 13.3333 1.99967 13.3333Z" fill="#00A3FF"/>
</svg>
