<svg width="22" height="22" viewBox="0 0 22 22" fill="none" xmlns="http://www.w3.org/2000/svg">
<g id="arrow/right regular">
<rect width="22" height="22" rx="11" fill="white" fill-opacity="0.4"/>
<path id="Vector" d="M15.7782 6.22943C15.4824 5.93364 15.0045 5.93364 14.7088 6.22943L11 9.9306L7.29124 6.22184C6.99545 5.92605 6.51763 5.92605 6.22184 6.22184C5.92605 6.51763 5.92605 6.99545 6.22184 7.29124L9.9306 11L6.22184 14.7088C5.92605 15.0045 5.92605 15.4824 6.22184 15.7782C6.51763 16.0739 6.99545 16.0739 7.29124 15.7782L11 12.0694L14.7088 15.7782C15.0045 16.0739 15.4824 16.0739 15.7782 15.7782C16.0739 15.4824 16.0739 15.0045 15.7782 14.7088L12.0694 11L15.7782 7.29124C16.0664 7.00303 16.0664 6.51763 15.7782 6.22943Z" fill="white"/>
</g>
</svg>
