<svg width="20" height="20" viewBox="0 0 20 20" fill="none" xmlns="http://www.w3.org/2000/svg">
<g id="faq_svgrepo.com" clip-path="url(#clip0_309_4607)">
<path id="Vector" d="M9.99992 0.833008C8.18693 0.833008 6.41465 1.37062 4.9072 2.37787C3.39975 3.38512 2.22483 4.81675 1.53103 6.49174C0.837224 8.16673 0.655693 10.0098 1.00939 11.788C1.36309 13.5662 2.23613 15.1995 3.51811 16.4815C4.80009 17.7635 6.43344 18.6365 8.2116 18.9902C9.98975 19.3439 11.8329 19.1624 13.5079 18.4686C15.1828 17.7748 16.6145 16.5999 17.6217 15.0924C18.629 13.585 19.1666 11.8127 19.1666 9.99967C19.1637 7.5694 18.197 5.23949 16.4786 3.52103C14.7601 1.80257 12.4302 0.835875 9.99992 0.833008ZM9.99992 17.4997C8.51656 17.4997 7.06652 17.0598 5.83315 16.2357C4.59978 15.4116 3.63848 14.2402 3.07083 12.8698C2.50317 11.4994 2.35464 9.99135 2.64403 8.5365C2.93342 7.08164 3.64773 5.74527 4.69662 4.69637C5.74552 3.64748 7.08189 2.93317 8.53675 2.64378C9.9916 2.3544 11.4996 2.50292 12.87 3.07058C14.2405 3.63824 15.4118 4.59953 16.2359 5.8329C17.0601 7.06627 17.4999 8.51631 17.4999 9.99967C17.4975 11.9881 16.7065 13.8943 15.3005 15.3003C13.8945 16.7063 11.9883 17.4972 9.99992 17.4997ZM10.8333 13.7497V15.4163H9.16659V13.7497H10.8333ZM13.3333 7.91634C13.3342 8.41612 13.2222 8.90965 13.0058 9.36012C12.7893 9.8106 12.474 10.2064 12.0833 10.518C11.4521 11.0071 11.0253 11.7134 10.8858 12.4997H9.19242C9.26611 11.8572 9.46769 11.236 9.78528 10.6727C10.1029 10.1093 10.53 9.61529 11.0416 9.21967C11.2469 9.05537 11.4104 8.84482 11.5187 8.60524C11.6271 8.36566 11.6772 8.10384 11.665 7.84117C11.6528 7.57851 11.5787 7.32246 11.4486 7.09394C11.3185 6.86542 11.1362 6.67092 10.9166 6.52634C10.6718 6.36634 10.3902 6.27163 10.0984 6.25121C9.80671 6.23079 9.51461 6.28534 9.24992 6.40967C8.96759 6.545 8.73065 6.75944 8.56791 7.02692C8.40517 7.2944 8.32365 7.60339 8.33326 7.91634C8.33326 8.13735 8.24546 8.34932 8.08918 8.5056C7.9329 8.66188 7.72094 8.74967 7.49992 8.74967C7.27891 8.74967 7.06695 8.66188 6.91067 8.5056C6.75439 8.34932 6.66659 8.13735 6.66659 7.91634C6.65419 7.27587 6.83091 6.64596 7.17463 6.1054C7.51836 5.56484 8.01383 5.13762 8.59909 4.87717C9.11788 4.64532 9.68671 4.54784 10.2531 4.59371C10.8195 4.63959 11.3652 4.82735 11.8399 5.13967C12.2986 5.44334 12.6751 5.85581 12.9356 6.34029C13.1962 6.82478 13.3328 7.36623 13.3333 7.91634Z" fill="#97A1AD"/>
</g>
<defs>
<clipPath id="clip0_309_4607">
<rect width="20" height="20" fill="white"/>
</clipPath>
</defs>
</svg>
