<svg width="19" height="20" viewBox="0 0 19 20" fill="none" xmlns="http://www.w3.org/2000/svg">
<path d="M17.4166 11.138C17.4166 14.1236 17.4166 15.6164 16.4891 16.5438C15.5616 17.4714 14.0688 17.4714 11.0833 17.4714H7.91658C4.93102 17.4714 3.43825 17.4714 2.51074 16.5438C1.58325 15.6164 1.58325 14.1236 1.58325 11.138C1.58325 8.15246 1.58325 6.65968 2.51074 5.73218C3.43825 4.80469 4.93102 4.80469 7.91658 4.80469H11.0833C14.0688 4.80469 15.5616 4.80469 16.4891 5.73218C17.0145 6.25756 17.2423 6.96431 17.341 8.02102" stroke="#97A1AD" stroke-width="1.7" stroke-linecap="round"/>
<path d="M3.15698 5.25C3.24599 4.51294 3.43181 4.00359 3.81976 3.617C4.56436 2.875 5.76278 2.875 8.15961 2.875H10.7018C13.0987 2.875 14.2971 2.875 15.0416 3.617C15.4296 4.00359 15.6154 4.51294 15.7044 5.25" stroke="#97A1AD" stroke-width="1.7"/>
<path d="M13.8542 9.55469C14.5101 9.55469 15.0417 9.02303 15.0417 8.36719C15.0417 7.71135 14.5101 7.17969 13.8542 7.17969C13.1984 7.17969 12.6667 7.71135 12.6667 8.36719C12.6667 9.02303 13.1984 9.55469 13.8542 9.55469Z" stroke="#97A1AD" stroke-width="1.7"/>
<path d="M1.58325 11.5339L2.96993 10.3206C3.69135 9.68941 4.77864 9.72559 5.45647 10.4034L8.85249 13.7994C9.39653 14.3435 10.253 14.4177 10.8825 13.9753L11.1186 13.8094C12.0244 13.1727 13.25 13.2465 14.073 13.9872L16.6249 16.2839" stroke="#97A1AD" stroke-width="1.7" stroke-linecap="round"/>
</svg>
