<svg width="28" height="28" viewBox="0 0 28 28" fill="none" xmlns="http://www.w3.org/2000/svg">
<g id="Google svg">
<path id="Vector" d="M26.32 14.292C26.32 13.382 26.2383 12.507 26.0867 11.667H14V16.6312H20.9067C20.6092 18.2353 19.705 19.5945 18.3458 20.5045V23.7245H22.4933C24.92 21.4903 26.32 18.2003 26.32 14.292Z" fill="#4285F4"/>
<path id="Vector_2" d="M14 26.8335C17.465 26.8335 20.37 25.6843 22.4933 23.7243L18.3458 20.5043C17.1967 21.2743 15.7267 21.7293 14 21.7293C10.6575 21.7293 7.82834 19.4718 6.81918 16.4385H2.53168V19.7635C4.64334 23.9576 8.98334 26.8335 14 26.8335Z" fill="#34A853"/>
<path id="Vector_3" d="M6.81919 16.438C6.56252 15.668 6.41669 14.8455 6.41669 13.9997C6.41669 13.1538 6.56252 12.3313 6.81919 11.5613V8.23633H2.53169C1.63335 10.0247 1.1659 11.9984 1.16669 13.9997C1.16669 16.0705 1.66252 18.0305 2.53169 19.763L6.81919 16.438Z" fill="#FBBC05"/>
<path id="Vector_4" d="M14 6.27116C15.8842 6.27116 17.5758 6.91866 18.9058 8.19033L22.5867 4.50949C20.3642 2.43866 17.4592 1.16699 14 1.16699C8.98334 1.16699 4.64334 4.04283 2.53168 8.23699L6.81918 11.562C7.82834 8.52866 10.6575 6.27116 14 6.27116Z" fill="#EA4335"/>
</g>
</svg>
