<svg width="19" height="20" viewBox="0 0 19 20" fill="none" xmlns="http://www.w3.org/2000/svg">
<g id="home_svgrepo.com">
<path id="Vector" d="M17.4166 10.1611V11.3653C17.4166 14.4534 17.4166 15.9976 16.4891 16.9569C15.5616 17.9163 14.0688 17.9163 11.0833 17.9163H7.91658C4.93102 17.9163 3.43825 17.9163 2.51074 16.9569C1.58325 15.9976 1.58325 14.4534 1.58325 11.3653V10.1611C1.58325 8.34944 1.58325 7.4436 1.99429 6.69268C2.40532 5.94176 3.15625 5.4757 4.65811 4.54361L6.24144 3.56095C7.82902 2.57565 8.62283 2.08301 9.49992 2.08301C10.377 2.08301 11.1708 2.57565 12.7584 3.56095L14.3417 4.5436C15.8436 5.4757 16.5945 5.94176 17.0056 6.69268" stroke="#97A1AD" stroke-width="2" stroke-linecap="round"/>
<path id="Vector_2" d="M11.875 14.75H7.125" stroke="#97A1AD" stroke-width="2" stroke-linecap="round"/>
</g>
</svg>
