<svg width="18" height="18" viewBox="0 0 18 18" fill="none" xmlns="http://www.w3.org/2000/svg">
<g id="info-square_svgrepo.com" clip-path="url(#clip0_309_4599)">
<path id="Vector" d="M9 12.75V8.25" stroke="#97A1AD" stroke-width="2" stroke-linecap="round"/>
<path id="Vector_2" d="M8.84915 4.3515C9.51148 4.3515 10.0484 4.88842 10.0484 5.55075C10.0484 6.21308 9.51148 6.75 8.84915 6.75C8.18682 6.75 7.6499 6.21308 7.6499 5.55075C7.6499 4.88842 8.18682 4.3515 8.84915 4.3515Z" fill="#97A1AD"/>
<path id="Vector_3" d="M1.5 9C1.5 5.46446 1.5 3.6967 2.59835 2.59835C3.6967 1.5 5.46446 1.5 9 1.5C12.5355 1.5 14.3033 1.5 15.4016 2.59835C16.5 3.6967 16.5 5.46446 16.5 9C16.5 12.5355 16.5 14.3033 15.4016 15.4016C14.3033 16.5 12.5355 16.5 9 16.5C5.46446 16.5 3.6967 16.5 2.59835 15.4016C1.5 14.3033 1.5 12.5355 1.5 9Z" stroke="#97A1AD" stroke-width="2"/>
</g>
<defs>
<clipPath id="clip0_309_4599">
<rect width="18" height="18" fill="white"/>
</clipPath>
</defs>
</svg>
