<svg width="21" height="22" viewBox="0 0 21 22" fill="none" xmlns="http://www.w3.org/2000/svg">
<g id="house-shield_svgrepo.com">
<path id="Vector" d="M13.125 10.2708C13.125 10.2708 12.8573 10.2708 12.7969 10.2708C11.9005 10.2708 11.1192 9.90835 10.5 9.25C9.88076 9.90835 9.09956 10.2708 8.20316 10.2708C8.14272 10.2708 7.87504 10.2708 7.87504 10.2708C7.87504 10.2708 7.875 10.9513 7.875 11.3482C7.875 13.2855 8.99045 14.9134 10.5 15.375C12.0096 14.9134 13.125 13.2855 13.125 11.3482C13.125 10.9513 13.125 10.2708 13.125 10.2708Z" stroke="#97A1AD" stroke-width="1.7" stroke-linecap="round" stroke-linejoin="round"/>
<path id="Vector_2" d="M2.625 11.1135V13.2746C2.625 15.2348 2.625 16.2149 3.00647 16.9635C3.34204 17.6221 3.87747 18.1576 4.53604 18.4931C5.28473 18.8746 6.26482 18.8746 8.225 18.8746H12.775C14.7352 18.8746 15.7153 18.8746 16.464 18.4931C17.1225 18.1576 17.6579 17.6221 17.9935 16.9635C18.375 16.2149 18.375 15.2348 18.375 13.2746V11.1135C18.375 10.1083 18.375 9.60574 18.2454 9.14294C18.1307 8.73298 17.9421 8.34739 17.6889 8.0051C17.4031 7.6187 17.0065 7.31016 16.213 6.69308L13.9381 4.92363C12.7084 3.96725 12.0936 3.48905 11.4147 3.30524C10.8157 3.14304 10.1843 3.14304 9.58528 3.30524C8.90636 3.48905 8.29157 3.96725 7.06193 4.92363L4.78693 6.69308C3.99353 7.31016 3.59684 7.6187 3.31104 8.0051C3.05789 8.34739 2.8693 8.73298 2.75454 9.14294C2.625 9.60574 2.625 10.1083 2.625 11.1135Z" stroke="#97A1AD" stroke-width="1.7" stroke-linecap="round" stroke-linejoin="round"/>
</g>
</svg>
