<svg width="16" height="16" viewBox="0 0 16 16" fill="none" xmlns="http://www.w3.org/2000/svg">
<g id="zoom/search regular" clip-path="url(#clip0_380_4981)">
<path id="Icon" d="M14.8031 15.864C15.096 16.1569 15.5709 16.1569 15.8637 15.864C16.1566 15.5711 16.1566 15.0962 15.8637 14.8033L14.8031 15.864ZM11.9952 6.70621C11.9952 9.62736 9.62712 11.9954 6.70596 11.9954V13.4954C10.4555 13.4954 13.4952 10.4558 13.4952 6.70621H11.9952ZM6.70596 11.9954C3.78481 11.9954 1.41675 9.62736 1.41675 6.70621H-0.083252C-0.083252 10.4558 2.95638 13.4954 6.70596 13.4954V11.9954ZM1.41675 6.70621C1.41675 3.78505 3.78481 1.41699 6.70596 1.41699V-0.0830078C2.95638 -0.0830078 -0.083252 2.95663 -0.083252 6.70621H1.41675ZM6.70596 1.41699C9.62712 1.41699 11.9952 3.78505 11.9952 6.70621H13.4952C13.4952 2.95663 10.4555 -0.0830078 6.70596 -0.0830078V1.41699ZM10.4894 11.5503L14.8031 15.864L15.8637 14.8033L11.55 10.4896L10.4894 11.5503Z" fill="#5F6D7E"/>
</g>
<defs>
<clipPath id="clip0_380_4981">
<rect width="16" height="16" fill="white"/>
</clipPath>
</defs>
</svg>
