<svg width="18" height="18" viewBox="0 0 18 18" fill="none" xmlns="http://www.w3.org/2000/svg">
<g id="reply_svgrepo.com" clip-path="url(#clip0_309_8049)">
<g id="Page-1">
<g id="Icon-Set">
<path id="reply" fill-rule="evenodd" clip-rule="evenodd" d="M9.32133 9.64306C9.74176 9.64306 11.2628 9.65593 11.2628 9.65593V13.1081L16.1851 7.71449L11.2628 2.31447V5.79235C11.2628 5.79235 9.65562 5.77306 9.32133 5.78592C4.78147 5.92735 1.6289 11.0959 1.60833 13.5131C2.99562 11.7324 6.64062 9.64306 9.32133 9.64306ZM9.97512 4.50664V0.713766C9.95326 0.520909 10.0053 0.32808 10.1519 0.180223C10.4065 -0.0704911 10.8192 -0.0704911 11.0738 0.180223L17.4953 7.22591C17.6309 7.36091 17.6888 7.53449 17.6798 7.71449C17.6888 7.88806 17.6309 8.06807 17.4953 8.20307L11.1091 15.2038C10.9908 15.3516 10.8192 15.4481 10.6193 15.4481C10.4367 15.4481 10.274 15.3709 10.157 15.2488C10.1558 15.2488 10.1532 15.2487 10.1519 15.2423C10.0053 15.1009 9.95326 14.9016 9.97512 14.7152C9.97512 14.7152 9.96419 11.1473 9.96419 10.9288C5.72133 10.9288 1.88412 13.9824 1.12233 18.0066C0.609333 16.8238 0.321331 15.5252 0.321331 14.1559C0.321331 8.82664 4.6439 4.50664 9.97512 4.50664Z" fill="black"/>
</g>
</g>
</g>
<defs>
<clipPath id="clip0_309_8049">
<rect width="18" height="18" fill="white" transform="matrix(-1 0 0 1 18 0)"/>
</clipPath>
</defs>
</svg>
