<svg width="24" height="24" viewBox="0 0 24 24" fill="none" xmlns="http://www.w3.org/2000/svg">
<g id="cib:tiktok">
<path id="Vector" d="M12.5053 1.01856C13.7607 1 15.0088 1.011 16.2556 1C16.3311 2.40326 16.8591 3.83265 17.9339 4.82477C19.0066 5.84163 20.5238 6.3071 22 6.46454V10.1559C20.6166 10.1126 19.2267 9.8376 17.9713 9.26832C17.4246 9.0318 16.9153 8.72722 16.4167 8.41577C16.4102 11.0944 16.4282 13.7696 16.3987 16.4373C16.3239 17.7188 15.8815 18.9942 15.1016 20.0503C13.847 21.8083 11.6694 22.9544 9.43274 22.9902C8.06083 23.0651 6.69037 22.7076 5.52134 22.0489C3.58398 20.9571 2.22071 18.9585 2.02216 16.8133C1.99715 16.359 1.99331 15.9039 2.01065 15.4493C2.1833 13.705 3.08616 12.0363 4.48756 10.9012C6.076 9.57908 8.30111 8.9493 10.3845 9.32194C10.4039 10.6798 10.3471 12.0363 10.3471 13.3942C9.39533 13.1 8.28313 13.1825 7.4515 13.7346C6.84306 14.1176 6.38326 14.6812 6.1429 15.3386C5.94435 15.8034 6.00118 16.3197 6.01269 16.8133C6.24074 18.3177 7.75437 19.5821 9.37015 19.4452C10.4413 19.4342 11.4679 18.8402 12.0262 17.9705C12.2068 17.6659 12.4089 17.3544 12.4197 16.9962C12.5139 15.3565 12.4765 13.7236 12.488 12.0838C12.496 8.38827 12.4765 4.70307 12.506 1.01925L12.5053 1.01856Z" fill="black"/>
</g>
</svg>
